<svg xmlns="http://www.w3.org/2000/svg" viewBox="0 0 512 512" role="img" aria-label="Stephanie">
  <defs>
    <linearGradient id="bg" x1="0%" y1="0%" x2="100%" y2="100%">
      <stop offset="0%" stop-color="#3b82f6" />
      <stop offset="55%" stop-color="#8b5cf6" />
      <stop offset="100%" stop-color="#10b981" />
    </linearGradient>
  </defs>
  <rect width="512" height="512" rx="112" fill="url(#bg)" />
  <circle cx="256" cy="256" r="168" fill="rgba(255,255,255,0.18)" />
  <g transform="translate(256 230)">
    <path
      d="M-72 -56 C-72 -72 -56 -88 -24 -88 L24 -88 C56 -88 72 -72 72 -56 L72 72 C72 88 56 104 24 104 L-24 104 C-56 104 -72 88 -72 72 Z"
      fill="#ffffff"
      opacity="0.95"
    />
    <path d="M0 -88 L0 104" stroke="#3b82f6" stroke-width="8" />
    <path
      d="M-48 -24 L-16 -24 M-48 8 L-16 8 M-48 40 L-16 40"
      stroke="#3b82f6"
      stroke-width="10"
      stroke-linecap="round"
    />
    <path
      d="M16 -24 L48 -24 M16 8 L48 8 M16 40 L48 40"
      stroke="#10b981"
      stroke-width="10"
      stroke-linecap="round"
    />
  </g>
  <text
    x="256"
    y="420"
    font-family="Segoe UI, Arial, sans-serif"
    font-size="52"
    font-weight="700"
    fill="#ffffff"
    text-anchor="middle"
  >S</text>
</svg>
